<?xml version="1.0" encoding="utf-8"?>
<!-- Generator: Adobe Illustrator 22.1.0, SVG Export Plug-In . SVG Version: 6.00 Build 0)  -->
<svg version="1.0" id="Layer_1" xmlns="http://www.w3.org/2000/svg" xmlns:xlink="http://www.w3.org/1999/xlink" x="0px" y="0px"
	 viewBox="0 0 213.6 123.1" style="enable-background:new 0 0 213.6 123.1;" xml:space="preserve">
<style type="text/css">
	.st0{fill:#09A6E0;}
	.st1{fill:#00557F;}
</style>
<path class="st0" d="M136.4,18H98.1c-4.6,0-8.2,4-8.2,9c0,4.9,3.6,9,8.2,9h16.1c2.1,0,3.8,1.3,3.8,3.4c0,2.1-1.7,3.4-3.8,3.4H98.1
	c-8.8,0-15.6-6.9-15.6-15.7c0-8.8,6.9-15.7,15.6-15.7h33.6C125.5,4.4,116.5,0,106.6,0C87.9,0,72.8,15.2,72.8,33.8
	c0,5.6,1.4,10.8,3.8,15.5h38.2c4.6,0,8.5-3.7,8.5-8.7c0-5-3.9-9.2-8.5-9.2H98.7c-2.1,0-3.8-1.3-3.8-3.4c0-2.1,1.7-3.4,3.8-3.4h16.1
	c8.8,0,15.9,6.9,15.9,15.6c0,8.7-7.2,15.7-15.9,15.7H81.1c0,0,0,0,0,0l0,0l-2.8,11.2L90,63.2c4.9,2.8,10.5,4.4,16.6,4.4
	c18.7,0,33.8-15.1,33.8-33.8C140.3,28.1,138.9,22.7,136.4,18z"/>
<g>
	<path class="st1" d="M27.3,88.8c-0.9-1.2-2.1-2.1-3.6-2.8c-1.5-0.7-2.9-1-4.3-1c-0.7,0-1.4,0.1-2.2,0.2c-0.7,0.1-1.4,0.4-2,0.7
		c-0.6,0.4-1.1,0.8-1.5,1.4c-0.4,0.6-0.6,1.3-0.6,2.2c0,0.8,0.2,1.4,0.5,1.9c0.3,0.5,0.8,0.9,1.4,1.3c0.6,0.4,1.3,0.7,2.2,1
		c0.8,0.3,1.8,0.6,2.8,1c1.5,0.5,3.1,1.1,4.7,1.7c1.6,0.6,3.1,1.4,4.5,2.4c1.3,1,2.5,2.3,3.3,3.8c0.9,1.5,1.3,3.4,1.3,5.6
		c0,2.6-0.5,4.8-1.4,6.7c-0.9,1.9-2.2,3.4-3.8,4.6c-1.6,1.2-3.4,2.1-5.5,2.7c-2.1,0.6-4.2,0.9-6.4,0.9c-3.2,0-6.3-0.6-9.3-1.7
		c-3-1.1-5.5-2.7-7.5-4.8l7.1-7.2c1.1,1.3,2.5,2.5,4.3,3.4c1.8,0.9,3.6,1.4,5.3,1.4c0.8,0,1.6-0.1,2.3-0.3c0.8-0.2,1.4-0.4,2-0.8
		c0.6-0.4,1-0.9,1.4-1.5c0.3-0.6,0.5-1.4,0.5-2.3c0-0.8-0.2-1.6-0.6-2.1c-0.4-0.6-1-1.1-1.8-1.6c-0.8-0.5-1.7-0.9-2.9-1.3
		c-1.2-0.4-2.5-0.8-3.9-1.3c-1.4-0.5-2.8-1-4.2-1.6c-1.4-0.6-2.6-1.4-3.7-2.4c-1.1-1-1.9-2.2-2.6-3.6c-0.7-1.4-1-3.1-1-5.1
		c0-2.5,0.5-4.6,1.5-6.4c1-1.8,2.3-3.2,4-4.4s3.5-2,5.6-2.5c2.1-0.5,4.1-0.8,6.3-0.8c2.5,0,5.1,0.5,7.7,1.4c2.6,0.9,4.9,2.3,6.9,4.1
		L27.3,88.8z"/>
	<path class="st1" d="M43.5,121.9V77.2h10.9v44.7H43.5z"/>
	<path class="st1" d="M105.4,121.9l0.3-31.6h-0.2l-11.6,31.6h-7.6L75,90.3h-0.2l0.3,31.6H64.9V77.2h15.4l10.2,28.7h0.3l9.7-28.7H116
		v44.7H105.4z"/>
	<path class="st1" d="M161.3,108.9c0,2.4-0.5,4.5-1.5,6.2c-1,1.7-2.3,3-3.9,4c-1.6,1-3.4,1.7-5.5,2.2c-2,0.4-4.1,0.7-6.3,0.7h-17.8
		V77.2h17.8c1.7,0,3.5,0.2,5.3,0.5c1.8,0.4,3.5,1,4.9,1.8c1.5,0.9,2.7,2,3.6,3.5c0.9,1.5,1.4,3.3,1.4,5.6c0,2.5-0.7,4.5-2,6.2
		c-1.3,1.6-3.1,2.8-5.3,3.5v0.1c1.3,0.2,2.5,0.6,3.6,1.2c1.1,0.6,2.1,1.3,2.9,2.2c0.8,0.9,1.5,1.9,2,3.1
		C161,106.1,161.3,107.5,161.3,108.9z M149,90.2c0-1.5-0.6-2.6-1.7-3.3c-1.2-0.7-2.9-1-5.1-1h-5.3V95h5.8c2,0,3.6-0.4,4.7-1.2
		C148.5,93,149,91.8,149,90.2z M150.5,107.9c0-1.9-0.7-3.1-2.1-3.9c-1.4-0.7-3.2-1.1-5.6-1.1h-6v10.2h6.1c0.8,0,1.7-0.1,2.6-0.2
		c0.9-0.1,1.7-0.4,2.5-0.8c0.7-0.4,1.3-0.9,1.8-1.6C150.2,109.9,150.5,109,150.5,107.9z"/>
	<path class="st1" d="M201.5,121.9l-3.5-8.8h-17.3l-3.3,8.8h-11.7l18.8-44.7H195l18.6,44.7H201.5z M189.6,89.2l-5.7,15.3h11.2
		L189.6,89.2z"/>
</g>
</svg>
