<?xml version="1.0" encoding="utf-8"?>
<!-- Generator: Adobe Illustrator 22.1.0, SVG Export Plug-In . SVG Version: 6.00 Build 0)  -->
<svg version="1.0" id="Layer_1" xmlns="http://www.w3.org/2000/svg" xmlns:xlink="http://www.w3.org/1999/xlink" x="0px" y="0px"
	 viewBox="0 0 72 72" style="enable-background:new 0 0 72 72;" xml:space="preserve">
<style type="text/css">
	.st0{fill:#09A6E0;}
</style>
<path class="st0" d="M67.8,19.1H27c-4.9,0-8.8,4.3-8.8,9.5c0,5.3,3.9,9.5,8.8,9.5h17.1c2.2,0,4,1.4,4,3.6c0,2.2-1.8,3.6-4,3.6H27
	c-9.4,0-16.7-7.3-16.7-16.7c0-9.4,7.3-16.7,16.7-16.7h35.8C56.2,4.6,46.6,0,36,0C16.1,0,0,16.1,0,36c0,5.9,1.5,11.6,4,16.5h40.7
	c4.9,0,9.1-4,9.1-9.3c0-5.3-4.2-9.8-9.1-9.8H27.6c-2.2,0-4-1.4-4-3.6c0-2.2,1.8-3.6,4-3.6h17.1c9.4,0,17,7.4,17,16.6
	c0,9.2-7.6,16.8-17,16.8H8.9c0,0,0,0,0,0l0,0L5.9,71.5l12.4-4.2C23.6,70.3,29.6,72,36,72c19.9,0,36-16.1,36-36
	C72,29.9,70.5,24.1,67.8,19.1z"/>
</svg>
